<svg xmlns="http://www.w3.org/2000/svg" fill-rule="evenodd" stroke-linejoin="round" stroke-miterlimit="2" clip-rule="evenodd" viewBox="0 0 48 48"><path d="M35,38l0,6c-0,0.552 0.448,1 1,1c0.552,0 1,-0.448 1,-1l0,-6c-0,-0.552 -0.448,-1 -1,-1c-0.552,0 -1,0.448 -1,1Zm6,4c0,-1.126 1.009,-2.011 1.947,-2.481c0.331,-0.165 0.803,-0.252 1.053,-0.289l0,4.77c0,0.552 0.448,1 1,1c0.552,-0 1,-0.448 1,-1l0,-5c0,-0.548 -0.193,-0.954 -0.483,-1.25c-0.362,-0.373 -0.937,-0.594 -1.659,-0.549c-0.831,0.051 -1.926,0.476 -2.858,1.19l-0,-0.391c0,-0.552 -0.448,-1 -1,-1c-0.552,-0 -1,0.448 -1,1l0,6c0,0.552 0.448,1 1,1c0.552,-0 1,-0.448 1,-1l-0,-2Zm-13,-4.235c-0.531,-0.476 -1.232,-0.765 -2,-0.765c-1.656,0 -3,1.344 -3,3c-0,-0 -0,4 -0,4c0,0.552 0.448,1 1,1c0.552,-0 1,-0.448 1,-1l-0,-4c-0,-0.552 0.448,-1 1,-1c0.552,0 1,0.448 1,1c-0,-0 -0,4 -0,4c0,0.552 0.448,1 1,1c0.552,-0 1,-0.448 1,-1l-0,-4l0,-0.006c0.003,-0.549 0.45,-0.994 1,-0.994c0.552,0 1,0.448 1,1c-0,-0 -0,4 -0,4c0,0.552 0.448,1 1,1c0.552,-0 1,-0.448 1,-1l-0,-4c-0,-1.656 -1.344,-3 -3,-3c-0.768,0 -1.469,0.289 -2,0.765Zm-18,3.235l-0,-0.002c-0,-1.656 -1.342,-2.998 -2.998,-2.998l-3.002,0l-0,-3c-0,-1.104 0.896,-2 2,-2c1.104,0 2,0.896 2,2c-0,0.552 0.448,1 1,1c0.552,0 1,-0.448 1,-1c-0,-2.208 -1.792,-4 -4,-4c-2.208,0 -4,1.792 -4,4c-0,0 -0,6 -0,6c-0,2.208 1.792,4 4,4c2.208,0 4,-1.792 4,-4l-0,0Zm10,-6c-0,-2.208 -1.792,-4 -4,-4c-2.208,0 -4,1.792 -4,4c-0,-0 -0,6 -0,6c-0,2.208 1.792,4 4,4c2.208,0 4,-1.792 4,-4l-0,-6Zm-16,5l-0,1c-0,1.104 0.896,2 2,2c1.104,0 2,-0.896 2,-2l-0,-0.002c0,-0.551 -0.447,-0.998 -0.998,-0.998l-3.002,0Zm14,-5l-0,6c-0,1.104 -0.896,2 -2,2c-1.104,0 -2,-0.896 -2,-2l-0,-6c-0,-1.104 0.896,-2 2,-2c1.104,0 2,0.896 2,2Zm3,-30l-0,2.459c-4.055,1.275 -7,5.067 -7,9.541c0,5.519 4.481,10 10,10c5.519,-0 10,-4.481 10,-10c-0,-4.474 -2.945,-8.266 -7,-9.541l-0,-2.459l1,0c0.552,0 1,-0.448 1,-1c0,-0.552 -0.448,-1 -1,-1l-8,0c-0.552,0 -1,0.448 -1,1c0,0.552 0.448,1 1,1l1,0Zm4,4.062l-0,0.938c0,0.552 -0.448,1 -1,1c-0.552,0 -1,-0.448 -1,-1l-0,-0.938c-1.46,0.182 -2.798,0.759 -3.905,1.619l0.662,0.662c0.391,0.39 0.391,1.024 0,1.414c-0.39,0.391 -1.024,0.391 -1.414,0l-0.662,-0.662c-0.86,1.107 -1.437,2.445 -1.619,3.905l0.938,0c0.552,0 1,0.448 1,1c-0,0.552 -0.448,1 -1,1l-0.938,0c0.182,1.46 0.759,2.798 1.619,3.905l0.662,-0.662c0.39,-0.391 1.024,-0.391 1.414,-0c0.391,0.39 0.391,1.024 0,1.414l-0.662,0.662c1.107,0.86 2.445,1.437 3.905,1.619l-0,-0.938c0,-0.552 0.448,-1 1,-1c0.552,0 1,0.448 1,1l-0,0.938c1.46,-0.182 2.798,-0.759 3.905,-1.619l-0.662,-0.662c-0.391,-0.39 -0.391,-1.024 -0,-1.414c0.39,-0.391 1.024,-0.391 1.414,-0l0.662,0.662c0.86,-1.107 1.437,-2.445 1.619,-3.905l-0.938,0c-0.552,0 -1,-0.448 -1,-1c-0,-0.552 0.448,-1 1,-1l0.938,0c-0.182,-1.46 -0.759,-2.798 -1.619,-3.905l-0.662,0.662c-0.39,0.391 -1.024,0.391 -1.414,0c-0.391,-0.39 -0.391,-1.024 -0,-1.414l0.662,-0.662c-1.107,-0.86 -2.445,-1.437 -3.905,-1.619Zm-0,-2.013l-0,-2.049l-2,0l-0,2.049c0.329,-0.032 0.663,-0.049 1,-0.049c0.337,0 0.671,0.017 1,0.049Z"/></svg>