<svg id="SvgjsSvg1015" width="288" height="288" xmlns="http://www.w3.org/2000/svg" version="1.1" xmlns:xlink="http://www.w3.org/1999/xlink" xmlns:svgjs="http://svgjs.com/svgjs"><defs id="SvgjsDefs1016"></defs><g id="SvgjsG1017" transform="matrix(1,0,0,1,0,0)"><svg xmlns="http://www.w3.org/2000/svg" data-name="Layer 1" viewBox="0 0 64 64" width="288" height="288"><path fill="#020219" d="M49.26,29.74H14.33a10,10,0,0,1,0-20H49.26a10,10,0,1,1,0,20Z" class="colorb2b1ff svgShape"></path><path fill="#01010c" d="M14.33,13.78a6,6,0,0,0,0,12H49.26a6,6,0,1,0,0-12Z" class="colord8d8ff svgShape"></path><path fill="#020219" d="M49.26,55.19H14.33a10,10,0,0,1,0-20H49.26a10,10,0,0,1,0,20Z" class="colorb2b1ff svgShape"></path><path fill="#01010c" d="M14.33,39.23a6,6,0,0,0,0,12H49.26a6,6,0,1,0,0-12Z" class="colord8d8ff svgShape"></path><path fill="#ffffff" d="M26.64 47.21H14.33a2 2 0 1 1 0-4H26.64a2 2 0 0 1 0 4zM14.33 25.91a6.15 6.15 0 1 1 6.16-6.15A6.16 6.16 0 0 1 14.33 25.91zM49.26 51.19a6 6 0 1 1 6-6A6 6 0 0 1 49.26 51.19z" class="color6361eb svgShape"></path></svg></g></svg>